# xmcd
#
# Track frame offsets: 
#        150
#        15785
#        32131
#        47759
#        67126
#        84248
#        102010
#        116975
#        135117
#        150423
#        169299
#        195041
#        212835
#        225778
#        252324
#
# Disc length: 3580 seconds
#
# Revision: 5
# Processed by: cddbd v1.5.2PL0 Copyright (c) Steve Scherf et al.
# Submitted via: ExactAudioCopy v0.99pb5
#
DISCID=ae0dfa0f
DTITLE=Various Artist - Peter's Pop Hits 82-83 - CD 1
DYEAR=1999
DGENRE=Pop
TTITLE0=Huey Lewis And The News - Do you believe in love
TTITLE1=J. Geils Band - Centerfold
TTITLE2=Stranglers - Golden brown
TTITLE3=Mike Oldfield - Five miles out
TTITLE4=Dave Stewart with Barbara Gaskin - It's my party
TTITLE5=Kim Wilde - Cambodia
TTITLE6=Tight Fit - The lion sleeps tonight
TTITLE7=Hot Chocolate - It started with a kiss
TTITLE8=F-R David - Words
TTITLE9=Gazebo - Master piece
TTITLE10=David Christie - Saddle up
TTITLE11=Imagination - Just an illusion
TTITLE12=Fehlfarben - Ein Jahr (es geht voran)
TTITLE13=Rheingold - Dreiklangs-Dimensionen
TTITLE14=Spider Murphy Gang - Skandal im Sperrbezirk
EXTD=YEAR: 1999
EXTT0=
EXTT1=
EXTT2=
EXTT3=
EXTT4=
EXTT5=
EXTT6=
EXTT7=
EXTT8=
EXTT9=
EXTT10=
EXTT11=
EXTT12=
EXTT13=
EXTT14=
PLAYORDER=
